<?xml version="1.0" standalone="no"?><svg xmlns="http://www.w3.org/2000/svg" viewBox="0 0 1440 320"><path fill="#5E17EB" fill-opacity="1" d="M0,288L40,282.7C80,277,160,267,240,245.3C320,224,400,192,480,192C560,192,640,224,720,250.7C800,277,880,299,960,272C1040,245,1120,171,1200,138.7C1280,107,1360,117,1400,122.7L1440,128L1440,320L1400,320C1360,320,1280,320,1200,320C1120,320,1040,320,960,320C880,320,800,320,720,320C640,320,560,320,480,320C400,320,320,320,240,320C160,320,80,320,40,320L0,320Z"></path></svg>